<?xml version="1.0" encoding="UTF-8" standalone="no"?>
<!DOCTYPE svg PUBLIC "-//W3C//DTD SVG 1.1//EN" "http://www.w3.org/Graphics/SVG/1.1/DTD/svg11.dtd">
<svg width="100%" height="100%" viewBox="0 0 300 117" version="1.1" xmlns="http://www.w3.org/2000/svg"
     xml:space="preserve"
     style="fill-rule:evenodd;clip-rule:evenodd;stroke-linejoin:round;stroke-miterlimit:2;">
    <g transform="matrix(1,0,0,1,-38.0509,-19.9503)">
        <g transform="matrix(90.2778,0,0,90.2778,78.3555,102.289)">
            <path d="M0.24,-0.19C0.25,-0.206 0.274,-0.243 0.312,-0.301C0.344,-0.351 0.396,-0.422 0.466,-0.516C0.507,-0.57 0.544,-0.616 0.578,-0.653C0.597,-0.675 0.615,-0.686 0.63,-0.686C0.639,-0.686 0.646,-0.683 0.652,-0.677C0.658,-0.672 0.66,-0.666 0.66,-0.658C0.66,-0.647 0.653,-0.63 0.64,-0.606C0.638,-0.601 0.624,-0.577 0.6,-0.535C0.557,-0.459 0.528,-0.405 0.513,-0.372C0.471,-0.283 0.44,-0.207 0.42,-0.144C0.409,-0.107 0.403,-0.079 0.403,-0.062C0.403,-0.058 0.404,-0.054 0.404,-0.049C0.406,-0.037 0.407,-0.029 0.407,-0.027C0.407,-0.017 0.403,-0.009 0.396,0C0.39,0.007 0.383,0.011 0.375,0.011C0.366,0.011 0.358,0.005 0.353,-0.005C0.348,-0.014 0.345,-0.025 0.345,-0.04C0.345,-0.132 0.422,-0.313 0.576,-0.583C0.495,-0.497 0.406,-0.374 0.309,-0.213C0.287,-0.179 0.269,-0.155 0.255,-0.143C0.242,-0.131 0.229,-0.125 0.216,-0.125C0.204,-0.125 0.195,-0.13 0.189,-0.141C0.185,-0.148 0.183,-0.156 0.183,-0.166C0.183,-0.247 0.231,-0.375 0.328,-0.55C0.295,-0.516 0.264,-0.477 0.233,-0.433C0.178,-0.351 0.129,-0.268 0.086,-0.182C0.065,-0.14 0.041,-0.085 0.011,-0.016C-0.003,0.019 -0.02,0.037 -0.04,0.037C-0.044,0.037 -0.049,0.035 -0.052,0.03C-0.054,0.027 -0.056,0.024 -0.056,0.02C-0.056,0.013 -0.05,-0.004 -0.038,-0.031C-0.012,-0.092 0.008,-0.136 0.021,-0.163C0.091,-0.299 0.174,-0.427 0.27,-0.547C0.31,-0.597 0.338,-0.63 0.353,-0.645C0.369,-0.66 0.382,-0.668 0.393,-0.668C0.399,-0.668 0.405,-0.665 0.412,-0.659C0.419,-0.652 0.423,-0.645 0.423,-0.636C0.423,-0.626 0.416,-0.61 0.402,-0.587C0.363,-0.524 0.327,-0.452 0.294,-0.373C0.266,-0.301 0.248,-0.24 0.24,-0.19Z"
                  style="fill:rgb(1,149,213);fill-rule:nonzero;"/>
        </g>
        <g transform="matrix(90.2778,0,0,90.2778,129.622,102.289)">
            <path d="M0.16,-0.353C0.187,-0.353 0.2,-0.337 0.2,-0.304C0.2,-0.261 0.18,-0.206 0.14,-0.14C0.097,-0.068 0.054,-0.032 0.014,-0.032C-0.005,-0.032 -0.019,-0.041 -0.028,-0.058C-0.032,-0.067 -0.035,-0.077 -0.035,-0.09C-0.035,-0.132 -0.02,-0.177 0.008,-0.226C0.035,-0.271 0.066,-0.306 0.103,-0.331C0.124,-0.346 0.143,-0.353 0.16,-0.353ZM0.109,-0.168C0.101,-0.175 0.097,-0.18 0.097,-0.184C0.097,-0.186 0.102,-0.193 0.113,-0.205C0.142,-0.238 0.157,-0.264 0.157,-0.285C0.157,-0.287 0.156,-0.29 0.154,-0.292C0.152,-0.297 0.148,-0.3 0.142,-0.3C0.132,-0.3 0.116,-0.29 0.096,-0.27C0.07,-0.243 0.05,-0.217 0.037,-0.189C0.021,-0.157 0.013,-0.131 0.013,-0.11C0.013,-0.105 0.014,-0.1 0.017,-0.096C0.021,-0.09 0.027,-0.087 0.033,-0.087C0.049,-0.087 0.066,-0.099 0.083,-0.122C0.091,-0.132 0.098,-0.142 0.103,-0.152C0.107,-0.163 0.11,-0.168 0.109,-0.168Z"
                  style="fill:rgb(1,149,213);fill-rule:nonzero;"/>
        </g>
        <g transform="matrix(90.2778,0,0,90.2778,150.56,102.289)">
            <path d="M0.062,-0.206C0.066,-0.209 0.07,-0.213 0.074,-0.217C0.142,-0.284 0.188,-0.317 0.211,-0.317C0.224,-0.317 0.23,-0.31 0.23,-0.296C0.23,-0.286 0.224,-0.275 0.213,-0.261C0.151,-0.189 0.12,-0.125 0.12,-0.069C0.12,-0.051 0.125,-0.034 0.134,-0.018C0.139,-0.011 0.141,-0.005 0.141,0C0.141,0.003 0.139,0.007 0.135,0.011C0.131,0.015 0.126,0.018 0.12,0.018C0.107,0.018 0.096,0.009 0.086,-0.008C0.078,-0.024 0.073,-0.043 0.073,-0.066C0.073,-0.11 0.09,-0.159 0.123,-0.212C0.079,-0.184 0.038,-0.133 0,-0.062C-0.01,-0.044 -0.021,-0.036 -0.032,-0.036C-0.037,-0.036 -0.042,-0.038 -0.045,-0.042C-0.05,-0.046 -0.052,-0.052 -0.052,-0.059C-0.052,-0.077 -0.032,-0.123 0.008,-0.197C0.029,-0.238 0.046,-0.267 0.059,-0.285C0.071,-0.303 0.082,-0.312 0.09,-0.312C0.095,-0.312 0.099,-0.31 0.103,-0.306C0.107,-0.302 0.109,-0.296 0.109,-0.291C0.109,-0.283 0.105,-0.273 0.095,-0.26C0.082,-0.24 0.07,-0.222 0.062,-0.206Z"
                  style="fill:rgb(1,149,213);fill-rule:nonzero;"/>
        </g>
        <g transform="matrix(90.2778,0,0,90.2778,173.791,102.289)">
            <path d="M0.15,-0.353C0.129,-0.32 0.11,-0.283 0.092,-0.242C0.066,-0.184 0.053,-0.141 0.053,-0.112C0.053,-0.104 0.055,-0.098 0.058,-0.094C0.062,-0.09 0.067,-0.087 0.074,-0.087C0.09,-0.087 0.11,-0.103 0.133,-0.133C0.147,-0.152 0.16,-0.171 0.172,-0.19C0.178,-0.201 0.185,-0.206 0.192,-0.206C0.196,-0.206 0.2,-0.205 0.203,-0.202C0.205,-0.199 0.207,-0.196 0.207,-0.193C0.207,-0.181 0.191,-0.154 0.159,-0.112C0.121,-0.062 0.087,-0.037 0.056,-0.037C0.039,-0.037 0.025,-0.045 0.014,-0.06C0.007,-0.07 0.004,-0.084 0.004,-0.102C0.004,-0.141 0.015,-0.187 0.038,-0.239C0.044,-0.252 0.059,-0.284 0.084,-0.333C0.075,-0.331 0.069,-0.33 0.064,-0.33C0.057,-0.33 0.051,-0.332 0.046,-0.335C0.039,-0.34 0.035,-0.345 0.035,-0.352C0.035,-0.36 0.04,-0.367 0.049,-0.372C0.052,-0.373 0.064,-0.375 0.085,-0.378C0.093,-0.379 0.105,-0.382 0.12,-0.387C0.131,-0.408 0.15,-0.436 0.175,-0.471C0.19,-0.49 0.2,-0.503 0.205,-0.509C0.213,-0.517 0.22,-0.521 0.226,-0.521C0.23,-0.521 0.234,-0.519 0.238,-0.514C0.242,-0.51 0.244,-0.506 0.244,-0.501C0.244,-0.493 0.235,-0.476 0.217,-0.451C0.205,-0.435 0.196,-0.422 0.19,-0.412C0.226,-0.421 0.252,-0.426 0.268,-0.426C0.285,-0.426 0.294,-0.419 0.294,-0.404C0.294,-0.396 0.291,-0.391 0.285,-0.387C0.282,-0.385 0.273,-0.384 0.26,-0.382C0.254,-0.383 0.23,-0.376 0.186,-0.364C0.174,-0.36 0.162,-0.356 0.15,-0.353Z"
                  style="fill:rgb(1,149,213);fill-rule:nonzero;"/>
        </g>
        <g transform="matrix(90.2778,0,0,90.2778,195.831,102.289)">
            <path d="M0.061,-0.199C0.092,-0.233 0.129,-0.266 0.171,-0.299C0.186,-0.311 0.202,-0.321 0.219,-0.332C0.227,-0.336 0.233,-0.339 0.235,-0.339C0.24,-0.339 0.245,-0.335 0.25,-0.328C0.252,-0.324 0.254,-0.321 0.254,-0.317C0.254,-0.312 0.248,-0.304 0.235,-0.293C0.202,-0.267 0.186,-0.247 0.186,-0.234C0.186,-0.226 0.19,-0.223 0.198,-0.223C0.212,-0.223 0.236,-0.234 0.271,-0.257C0.276,-0.261 0.281,-0.263 0.285,-0.263C0.288,-0.263 0.29,-0.262 0.293,-0.259C0.296,-0.256 0.297,-0.253 0.297,-0.25C0.297,-0.24 0.284,-0.225 0.256,-0.205C0.228,-0.184 0.201,-0.173 0.175,-0.173C0.164,-0.173 0.155,-0.176 0.146,-0.181C0.139,-0.186 0.135,-0.194 0.135,-0.206C0.135,-0.214 0.138,-0.223 0.145,-0.233C0.119,-0.215 0.089,-0.184 0.054,-0.14C0.034,-0.112 0.014,-0.079 -0.006,-0.039C-0.013,-0.024 -0.023,-0.016 -0.034,-0.016C-0.046,-0.016 -0.052,-0.022 -0.052,-0.033C-0.052,-0.044 -0.042,-0.074 -0.023,-0.122C0.005,-0.194 0.034,-0.249 0.064,-0.289C0.083,-0.313 0.099,-0.325 0.112,-0.325C0.116,-0.325 0.12,-0.324 0.124,-0.321C0.128,-0.318 0.13,-0.314 0.13,-0.309C0.13,-0.304 0.127,-0.297 0.12,-0.289C0.119,-0.287 0.11,-0.276 0.094,-0.256C0.08,-0.237 0.068,-0.218 0.061,-0.199Z"
                  style="fill:rgb(1,149,213);fill-rule:nonzero;"/>
        </g>
        <g transform="matrix(90.2778,0,0,90.2778,223.426,102.289)">
            <path d="M0.01,-0.132L0.01,-0.123C0.01,-0.116 0.012,-0.11 0.015,-0.104C0.023,-0.092 0.037,-0.086 0.055,-0.086C0.096,-0.086 0.143,-0.118 0.196,-0.18C0.206,-0.191 0.214,-0.196 0.22,-0.196C0.224,-0.196 0.227,-0.194 0.23,-0.191C0.232,-0.188 0.233,-0.186 0.233,-0.184C0.233,-0.171 0.217,-0.149 0.186,-0.119C0.162,-0.095 0.136,-0.076 0.108,-0.061C0.08,-0.046 0.055,-0.039 0.031,-0.039C0.006,-0.039 -0.013,-0.047 -0.027,-0.064C-0.036,-0.076 -0.041,-0.092 -0.041,-0.112C-0.041,-0.167 -0.015,-0.221 0.037,-0.273C0.079,-0.316 0.115,-0.338 0.146,-0.338C0.155,-0.338 0.163,-0.335 0.169,-0.33C0.178,-0.323 0.182,-0.314 0.182,-0.303C0.182,-0.286 0.174,-0.265 0.158,-0.24C0.125,-0.188 0.076,-0.152 0.01,-0.132ZM0.021,-0.17C0.043,-0.178 0.061,-0.187 0.074,-0.196C0.097,-0.214 0.115,-0.234 0.128,-0.256C0.133,-0.264 0.136,-0.271 0.136,-0.277C0.136,-0.283 0.133,-0.287 0.126,-0.287C0.118,-0.287 0.106,-0.28 0.09,-0.268C0.062,-0.245 0.039,-0.213 0.021,-0.17Z"
                  style="fill:rgb(1,149,213);fill-rule:nonzero;"/>
        </g>
        <g transform="matrix(90.2778,0,0,90.2778,248.199,102.289)">
            <path d="M0.01,-0.132L0.01,-0.123C0.01,-0.116 0.012,-0.11 0.015,-0.104C0.023,-0.092 0.037,-0.086 0.055,-0.086C0.096,-0.086 0.143,-0.118 0.196,-0.18C0.206,-0.191 0.214,-0.196 0.22,-0.196C0.224,-0.196 0.227,-0.194 0.23,-0.191C0.232,-0.188 0.233,-0.186 0.233,-0.184C0.233,-0.171 0.217,-0.149 0.186,-0.119C0.162,-0.095 0.136,-0.076 0.108,-0.061C0.08,-0.046 0.055,-0.039 0.031,-0.039C0.006,-0.039 -0.013,-0.047 -0.027,-0.064C-0.036,-0.076 -0.041,-0.092 -0.041,-0.112C-0.041,-0.167 -0.015,-0.221 0.037,-0.273C0.079,-0.316 0.115,-0.338 0.146,-0.338C0.155,-0.338 0.163,-0.335 0.169,-0.33C0.178,-0.323 0.182,-0.314 0.182,-0.303C0.182,-0.286 0.174,-0.265 0.158,-0.24C0.125,-0.188 0.076,-0.152 0.01,-0.132ZM0.021,-0.17C0.043,-0.178 0.061,-0.187 0.074,-0.196C0.097,-0.214 0.115,-0.234 0.128,-0.256C0.133,-0.264 0.136,-0.271 0.136,-0.277C0.136,-0.283 0.133,-0.287 0.126,-0.287C0.118,-0.287 0.106,-0.28 0.09,-0.268C0.062,-0.245 0.039,-0.213 0.021,-0.17Z"
                  style="fill:rgb(1,149,213);fill-rule:nonzero;"/>
        </g>
        <g transform="matrix(90.2778,0,0,90.2778,272.973,102.289)">
            <path d="M0.01,-0.132L0.01,-0.123C0.01,-0.116 0.012,-0.11 0.015,-0.104C0.023,-0.092 0.037,-0.086 0.055,-0.086C0.096,-0.086 0.143,-0.118 0.196,-0.18C0.206,-0.191 0.214,-0.196 0.22,-0.196C0.224,-0.196 0.227,-0.194 0.23,-0.191C0.232,-0.188 0.233,-0.186 0.233,-0.184C0.233,-0.171 0.217,-0.149 0.186,-0.119C0.162,-0.095 0.136,-0.076 0.108,-0.061C0.08,-0.046 0.055,-0.039 0.031,-0.039C0.006,-0.039 -0.013,-0.047 -0.027,-0.064C-0.036,-0.076 -0.041,-0.092 -0.041,-0.112C-0.041,-0.167 -0.015,-0.221 0.037,-0.273C0.079,-0.316 0.115,-0.338 0.146,-0.338C0.155,-0.338 0.163,-0.335 0.169,-0.33C0.178,-0.323 0.182,-0.314 0.182,-0.303C0.182,-0.286 0.174,-0.265 0.158,-0.24C0.125,-0.188 0.076,-0.152 0.01,-0.132ZM0.021,-0.17C0.043,-0.178 0.061,-0.187 0.074,-0.196C0.097,-0.214 0.115,-0.234 0.128,-0.256C0.133,-0.264 0.136,-0.271 0.136,-0.277C0.136,-0.283 0.133,-0.287 0.126,-0.287C0.118,-0.287 0.106,-0.28 0.09,-0.268C0.062,-0.245 0.039,-0.213 0.021,-0.17Z"
                  style="fill:rgb(1,149,213);fill-rule:nonzero;"/>
        </g>
    </g>
</svg>
